<?xml version="1.0" standalone="no"?>
<!DOCTYPE svg PUBLIC "-//W3C//DTD SVG 20010904//EN"
 "http://www.w3.org/TR/2001/REC-SVG-20010904/DTD/svg10.dtd">
<svg version="1.0" xmlns="http://www.w3.org/2000/svg"
 width="890.000000pt" height="836.000000pt" viewBox="0 0 890.000000 836.000000"
 preserveAspectRatio="xMidYMid meet">

<g transform="translate(0.000000,836.000000) scale(0.100000,-0.100000)"
fill="#000000" stroke="none">
<path d="M3495 8170 c-428 -50 -792 -168 -1088 -351 -237 -147 -470 -387 -567
-584 -76 -152 -88 -288 -40 -418 26 -68 94 -161 147 -201 l40 -30 -38 -115
c-39 -120 -65 -248 -77 -385 l-7 -79 -94 -32 c-157 -52 -182 -115 -81 -210 54
-51 60 -72 60 -207 0 -149 15 -325 36 -433 14 -75 14 -93 -6 -280 -66 -631
-21 -1041 150 -1375 170 -329 448 -562 873 -730 59 -24 107 -46 107 -49 0 -3
-23 -21 -51 -40 -62 -42 -187 -175 -254 -269 -50 -70 -50 -70 -150 -108 -546
-206 -1086 -447 -1325 -590 -358 -215 -608 -500 -830 -949 -84 -170 -170 -407
-170 -468 0 -50 36 -87 83 -87 55 0 82 30 113 123 98 297 247 582 419 802 68
87 218 236 305 302 139 105 377 235 676 369 175 78 686 285 692 280 2 -2 -3
-17 -11 -33 -35 -68 -300 -759 -304 -792 -4 -30 0 -43 21 -68 15 -17 40 -34
56 -38 86 -19 295 71 464 199 55 42 102 76 103 76 2 0 42 -38 88 -84 47 -46
116 -105 154 -131 38 -26 68 -53 66 -59 -3 -6 -18 -74 -35 -151 -17 -77 -62
-255 -101 -395 -38 -140 -73 -281 -76 -313 -5 -51 -3 -60 17 -82 41 -44 134
-29 152 25 3 9 42 5 158 -14 299 -48 648 -62 929 -36 130 12 133 12 147 -9 22
-31 87 -29 119 4 14 13 25 30 25 37 0 7 9 94 20 193 53 476 112 690 243 887
113 171 272 330 477 478 347 251 637 646 701 955 10 50 19 92 19 95 0 3 16
-18 36 -45 54 -74 101 -178 120 -263 44 -198 -36 -536 -241 -1022 -105 -248
-168 -360 -204 -360 -19 0 -126 76 -296 211 -123 97 -228 159 -269 159 -35 0
-115 -74 -160 -149 -53 -86 -126 -273 -126 -321 0 -54 34 -90 86 -90 51 0 81
37 128 158 49 128 69 162 98 162 12 0 65 -33 117 -73 200 -153 345 -251 394
-268 85 -29 123 -7 207 116 211 314 445 959 467 1293 3 50 7 92 8 92 14 0 933
-380 1090 -451 501 -225 789 -417 955 -638 162 -215 272 -563 315 -1001 8 -77
16 -95 56 -116 42 -21 81 -11 104 28 43 73 -12 468 -106 758 -45 139 -148 342
-222 440 -75 99 -201 222 -307 302 -275 206 -763 436 -1717 808 l-213 83 -54
111 c-63 126 -126 211 -209 276 l-57 45 0 146 0 146 34 44 c64 85 144 214 202
329 78 156 73 150 137 133 75 -21 235 -12 308 16 175 67 352 244 450 447 133
280 177 703 97 947 -28 89 -62 142 -140 223 l-69 72 12 208 c28 504 -29 865
-176 1103 -25 41 -44 78 -43 83 2 5 45 27 96 48 157 66 276 158 319 246 31 64
-8 139 -79 150 -28 5 -41 0 -78 -30 -69 -55 -131 -98 -135 -94 -2 1 1 39 6 83
53 443 -239 808 -646 808 -191 1 -371 -94 -473 -248 -17 -26 -33 -52 -34 -57
-3 -7 -62 12 -143 45 -415 166 -694 238 -1075 277 -255 26 -701 26 -925 0z
m905 -1069 c614 -76 1133 -260 1380 -488 73 -68 92 -102 115 -212 29 -140 69
-601 51 -601 -12 0 -109 51 -171 91 -127 80 -364 151 -620 186 -96 13 -194 17
-375 17 -267 -1 -394 -13 -540 -50 -124 -33 -199 -74 -264 -146 l-53 -58 -94
21 c-135 30 -332 24 -436 -13 l-72 -26 -25 43 c-48 80 -150 146 -271 174 -172
39 -749 42 -929 5 l-29 -6 6 83 c11 147 109 488 171 593 97 166 520 335 981
390 72 9 148 18 170 20 22 2 220 2 440 1 330 -3 429 -7 565 -24z m690 -1225
c235 -32 318 -66 352 -144 55 -124 17 -557 -62 -712 -32 -63 -112 -143 -172
-172 -108 -53 -166 -62 -383 -62 -300 1 -441 37 -558 144 -30 27 -68 76 -86
109 -86 162 -125 512 -76 677 33 111 126 153 390 174 134 11 465 3 595 -14z
m-2230 -6 c188 -20 274 -65 299 -155 23 -85 3 -294 -45 -463 -89 -314 -252
-432 -594 -431 -425 0 -563 141 -585 597 -8 153 7 323 30 359 49 74 191 100
570 101 127 1 273 -3 325 -8z m952 -209 c31 -12 61 -28 67 -35 6 -7 15 -78 21
-157 25 -361 88 -533 248 -680 158 -144 390 -208 717 -196 337 13 525 98 653
295 77 120 115 277 139 585 9 121 21 217 27 217 11 0 254 -127 274 -142 8 -7
12 -49 13 -142 0 -72 4 -167 8 -211 8 -71 12 -82 40 -107 25 -22 41 -28 77
-28 45 0 48 2 167 118 205 198 257 231 359 232 44 0 70 -7 120 -33 106 -55
160 -159 178 -345 25 -262 -56 -582 -195 -777 -116 -164 -316 -266 -439 -225
-20 6 -59 29 -86 51 -28 22 -63 42 -78 45 -44 9 -83 -31 -112 -113 -47 -135
-144 -325 -235 -463 -138 -208 -407 -426 -697 -565 -697 -334 -1654 -335
-2348 -4 -145 70 -195 100 -306 186 -214 164 -363 398 -434 678 -40 156 -50
260 -50 505 0 186 14 437 25 448 2 2 16 -8 32 -22 44 -42 180 -104 268 -122
58 -13 127 -17 255 -17 190 0 271 15 388 68 30 14 56 25 57 25 1 0 5 -20 8
-45 9 -62 38 -114 88 -159 49 -45 101 -69 195 -92 135 -33 487 -14 574 31 60
31 78 99 40 148 -30 38 -78 43 -185 21 -126 -26 -358 -27 -432 -1 -77 27 -96
56 -90 137 7 89 38 177 129 363 43 87 78 171 78 187 0 15 -8 38 -18 50 -16 20
-17 31 -6 124 13 115 22 139 64 161 53 27 103 34 225 31 94 -2 132 -8 177 -25z
m1858 -2691 c0 -158 -9 -213 -53 -320 -99 -241 -319 -530 -520 -681 -83 -63
-276 -162 -386 -199 -105 -35 -252 -69 -367 -86 -141 -20 -404 -20 -552 1
-242 34 -482 128 -608 238 l-44 39 0 332 0 333 103 -23 c452 -103 1019 -87
1497 42 150 41 334 111 475 181 119 59 337 196 410 257 17 14 33 25 38 26 4 0
7 -63 7 -140z m-2723 -577 c-7 -125 9 -518 28 -653 15 -102 43 -252 61 -324 3
-15 2 -26 -4 -26 -6 0 -54 50 -107 110 -54 61 -111 118 -127 126 -52 27 -90
12 -176 -70 -111 -104 -282 -224 -282 -196 0 24 240 601 301 723 61 123 145
243 225 325 39 39 75 72 79 72 4 0 5 -39 2 -87z"/>
<path d="M4593 6465 c-80 -17 -119 -41 -139 -83 -21 -44 -11 -85 29 -118 28
-24 37 -26 87 -20 276 32 427 26 568 -25 48 -17 107 -33 132 -36 39 -4 48 -1
69 20 27 30 31 85 7 118 -39 57 -149 108 -301 140 -109 23 -355 25 -452 4z"/>
<path d="M2585 6409 c-251 -35 -388 -147 -296 -240 16 -16 37 -29 45 -29 9 0
60 12 113 27 82 22 120 26 228 27 72 0 167 -3 212 -8 l81 -9 27 29 c23 25 26
35 22 72 -2 24 -13 52 -22 62 -27 30 -115 59 -213 70 -98 11 -112 11 -197 -1z"/>
<path d="M4733 5676 c-96 -31 -168 -99 -203 -192 -29 -78 -25 -213 9 -289 48
-109 151 -175 271 -175 126 0 234 70 292 188 30 61 33 74 33 162 0 107 -17
157 -74 223 -70 79 -223 118 -328 83z m243 -254 c8 -9 14 -36 14 -60 0 -91
-96 -127 -135 -51 -29 55 -11 120 39 138 25 10 64 -3 82 -27z"/>
<path d="M2609 5689 c-107 -16 -211 -102 -246 -202 -28 -81 -24 -207 8 -277
56 -119 128 -171 249 -178 106 -6 164 14 239 84 83 76 115 150 115 264 1 68
-4 95 -23 137 -56 125 -195 195 -342 172z m196 -254 c48 -47 23 -141 -43 -160
-17 -5 -30 1 -53 25 -29 28 -31 35 -26 78 9 78 72 108 122 57z"/>
<path d="M6565 5136 c-72 -31 -239 -227 -270 -316 -21 -60 -19 -87 11 -117 22
-22 32 -25 77 -20 43 4 54 1 74 -19 28 -28 29 -44 3 -126 -36 -116 -19 -178
51 -178 69 0 132 118 133 250 1 65 -3 82 -29 129 -16 29 -44 65 -62 78 -18 14
-33 33 -33 41 0 9 36 50 80 92 93 87 107 120 68 163 -29 33 -64 41 -103 23z"/>
<path d="M2735 4382 c-34 -21 -132 -130 -164 -182 -26 -44 -26 -60 0 -94 15
-19 30 -26 56 -26 30 0 46 10 105 68 129 123 154 177 103 227 -29 30 -59 32
-100 7z"/>
<path d="M4326 4378 c-34 -48 -22 -82 64 -177 118 -132 174 -158 225 -106 49
48 31 86 -98 213 -88 86 -97 92 -135 92 -31 0 -45 -5 -56 -22z"/>
<path d="M3008 4316 c-19 -19 -51 -68 -73 -109 -39 -75 -40 -75 -23 -110 32
-67 93 -58 158 24 81 102 96 156 59 203 -31 39 -78 36 -121 -8z"/>
<path d="M4002 4327 c-12 -13 -22 -36 -22 -52 0 -32 89 -176 124 -201 49 -34
108 -2 108 59 0 41 -76 175 -115 202 -31 22 -70 18 -95 -8z"/>
<path d="M3332 4293 c-33 -32 -63 -121 -65 -191 -2 -37 3 -48 26 -68 60 -52
114 -11 140 105 10 40 17 86 17 101 0 35 -27 67 -62 76 -22 5 -33 0 -56 -23z"/>
<path d="M3660 4283 c-19 -24 -21 -36 -15 -83 14 -124 40 -170 94 -170 16 0
39 9 52 19 20 16 24 28 23 73 -1 67 -18 128 -45 162 -29 37 -80 36 -109 -1z"/>
<path d="M4184 3925 c-178 -92 -356 -128 -639 -129 -216 -1 -324 15 -465 66
-123 44 -152 46 -179 13 -72 -92 33 -171 299 -226 144 -30 450 -37 612 -14
161 23 311 65 424 120 105 51 144 89 144 141 0 42 -37 85 -72 83 -13 -1 -69
-25 -124 -54z"/>
<path d="M3241 3404 c-24 -31 -25 -33 -11 -69 33 -87 379 -126 519 -58 44 22
65 61 52 96 -16 40 -43 50 -108 37 -80 -14 -246 -12 -323 5 -91 20 -106 19
-129 -11z"/>
<path d="M3158 3090 c-34 -26 -50 -68 -46 -120 6 -86 92 -105 130 -29 27 51
24 114 -7 144 -29 30 -45 31 -77 5z"/>
<path d="M3784 3059 c-35 -39 -12 -165 37 -201 34 -26 75 -15 95 24 12 24 13
39 5 79 -13 61 -35 105 -56 113 -31 12 -62 6 -81 -15z"/>
<path d="M3457 3052 c-22 -24 -32 -120 -18 -165 22 -65 108 -72 132 -10 14 37
5 137 -15 168 -20 31 -74 34 -99 7z"/>
</g>
</svg>
