<?xml version="1.0" standalone="no"?>
<!DOCTYPE svg PUBLIC "-//W3C//DTD SVG 20010904//EN"
 "http://www.w3.org/TR/2001/REC-SVG-20010904/DTD/svg10.dtd">
<svg version="1.0" xmlns="http://www.w3.org/2000/svg"
 width="96.000000pt" height="96.000000pt" viewBox="0 0 96.000000 96.000000"
 preserveAspectRatio="xMidYMid meet">

<g transform="translate(0.000000,96.000000) scale(0.100000,-0.100000)"
fill="#000000" stroke="none">
<path d="M309 924 c-74 -22 -146 -116 -108 -140 11 -6 4 -74 -9 -84 -4 -3 -5
-60 -2 -127 6 -136 14 -157 84 -202 36 -24 36 -25 18 -44 -10 -10 -54 -34 -97
-52 -103 -45 -142 -82 -175 -170 -6 -16 -6 -25 0 -25 6 0 17 18 26 40 21 52
89 112 156 137 29 12 54 20 55 19 2 -2 -5 -21 -14 -44 -19 -51 -12 -62 27 -40
27 15 30 15 44 -1 12 -13 13 -24 4 -59 -6 -24 -8 -45 -6 -48 3 -2 40 -6 81 -8
81 -3 87 0 87 50 0 36 22 73 75 124 26 25 53 58 61 73 17 32 34 27 34 -8 0
-30 -38 -135 -49 -135 -5 0 -21 10 -36 22 -27 21 -28 21 -41 3 -16 -21 -18
-45 -5 -45 5 0 12 7 15 16 5 14 10 13 41 -6 l34 -21 19 38 c11 21 26 57 33 81
15 51 20 51 135 -4 82 -39 113 -74 121 -135 7 -49 23 -62 23 -18 0 47 -34 110
-73 137 -19 12 -71 38 -117 57 -79 34 -119 65 -120 93 0 28 34 72 56 72 55 0
101 109 70 163 -9 16 -16 50 -16 77 0 27 -4 59 -9 73 -7 18 -5 26 10 35 23 14
25 32 4 32 -9 0 -15 9 -15 24 0 27 -42 66 -69 66 -9 0 -26 -7 -39 -15 -19 -14
-27 -14 -74 0 -64 19 -177 18 -239 -1z m239 -115 c58 -17 92 -50 92 -90 0 -26
-3 -30 -17 -24 -56 24 -175 26 -189 4 -7 -12 -81 -11 -89 1 -3 6 -33 10 -66
10 l-59 0 6 28 c14 56 23 64 109 86 33 8 167 -1 213 -15z m30 -125 c14 -4 16
-58 2 -84 -13 -24 -55 -33 -96 -20 -27 9 -35 18 -40 46 -3 18 -4 40 -1 48 8
21 81 27 135 10z m-240 -27 c6 -46 -22 -77 -68 -77 -44 0 -60 18 -60 68 0 40
6 43 70 40 52 -3 55 -4 58 -31z m86 -25 c18 -116 186 -103 186 14 0 36 22 25
32 -15 l9 -32 26 21 c32 25 49 25 63 0 25 -47 -24 -140 -67 -126 -15 5 -23 -2
-36 -29 -38 -79 -159 -127 -270 -107 -107 20 -157 72 -157 164 l0 44 53 -1
c28 0 57 -5 62 -12 16 -18 95 -21 95 -3 0 6 -19 10 -41 10 -38 0 -41 2 -34 23
4 12 9 37 12 55 4 27 9 32 33 32 24 0 28 -5 34 -38z m165 -318 c-27 -44 -87
-73 -151 -74 -72 0 -98 16 -98 59 l0 36 83 0 c68 1 91 5 132 26 47 24 50 24
53 7 2 -10 -7 -35 -19 -54z m-267 -57 c4 -32 2 -36 -14 -31 -11 3 -25 0 -33
-6 -11 -9 -15 -10 -15 -1 0 14 27 69 44 90 12 16 12 17 18 -52z"/>
<path d="M493 754 c-29 -13 -10 -24 39 -24 34 0 49 3 42 10 -12 12 -65 21 -81
14z"/>
<path d="M255 739 c-4 -6 -5 -12 -4 -13 8 -7 69 7 69 15 0 13 -57 11 -65 -2z"/>
<path d="M494 656 c-11 -29 0 -51 26 -51 21 0 25 5 25 30 0 24 -5 31 -23 33
-13 2 -24 -3 -28 -12z"/>
<path d="M261 656 c-26 -31 14 -71 45 -45 8 7 14 22 12 33 -4 26 -40 33 -57
12z"/>
<path d="M692 598 c-15 -15 -16 -38 -2 -38 6 0 10 -7 10 -17 0 -31 12 -4 14
31 1 38 -3 43 -22 24z"/>
<path d="M285 519 c-11 -17 1 -21 15 -4 8 9 8 15 2 15 -6 0 -14 -5 -17 -11z"/>
<path d="M430 521 c0 -5 5 -13 10 -16 6 -3 10 -2 10 4 0 5 -4 13 -10 16 -5 3
-10 2 -10 -4z"/>
<path d="M470 522 c0 -12 19 -26 26 -19 2 2 -2 10 -11 17 -9 8 -15 8 -15 2z"/>
<path d="M315 510 c-3 -5 -2 -10 4 -10 5 0 13 5 16 10 3 6 2 10 -4 10 -5 0
-13 -4 -16 -10z"/>
<path d="M355 511 c-3 -5 -1 -12 5 -16 5 -3 10 1 10 9 0 18 -6 21 -15 7z"/>
<path d="M390 511 c0 -6 5 -13 10 -16 6 -3 10 1 10 9 0 9 -4 16 -10 16 -5 0
-10 -4 -10 -9z"/>
<path d="M446 478 c-10 -6 -45 -8 -77 -6 -60 4 -80 -6 -33 -18 33 -8 113 1
127 15 15 15 5 21 -17 9z"/>
<path d="M350 418 c0 -4 14 -8 30 -8 17 0 30 4 30 8 0 5 -13 9 -30 9 -16 0
-30 -4 -30 -9z"/>
<path d="M370 380 c0 -5 5 -10 11 -10 5 0 7 5 4 10 -3 6 -8 10 -11 10 -2 0 -4
-4 -4 -10z"/>
</g>
</svg>
